<svg width="179" height="53" fill="none" xmlns="http://www.w3.org/2000/svg"><path d="M177.238 37.239a2.758 2.758 0 00-1-.676 3.641 3.641 0 00-1.39-.248 2.682 2.682 0 00-1.7.427 1.426 1.426 0 00-.53 1.183 1.27 1.27 0 00.14.646c.107.18.258.331.44.437.244.134.502.24.77.318.31.09.67.18 1.09.269.423.08.84.187 1.25.318.339.102.66.256.95.457.253.173.459.405.6.676.153.309.225.65.21.994.006.345-.073.686-.23.994a1.987 1.987 0 01-.65.736 2.857 2.857 0 01-1 .437 5.556 5.556 0 01-1.26.139 5.16 5.16 0 01-3.51-1.262l.42-.696c.371.37.813.66 1.3.855a4.584 4.584 0 001.81.348 3.017 3.017 0 001.63-.378 1.24 1.24 0 00.6-1.133 1.28 1.28 0 00-.17-.676 1.355 1.355 0 00-.5-.477 3.415 3.415 0 00-.83-.348c-.33-.1-.72-.199-1.15-.298a10.29 10.29 0 01-1.21-.328 3.072 3.072 0 01-.87-.428 1.735 1.735 0 01-.53-.616 1.985 1.985 0 01-.18-.895c-.005-.367.073-.73.23-1.063a2.14 2.14 0 01.64-.785c.301-.22.64-.382 1-.478.41-.115.834-.172 1.26-.169a4.169 4.169 0 012.78 1.004l-.4.686-.01.03zm-17.48 2.654c-.011-.53.07-1.058.24-1.56a4.108 4.108 0 012.11-2.376 3.85 3.85 0 011.76-.388 3.636 3.636 0 012 .527c.533.335.962.81 1.24 1.372l-.69.417a2.617 2.617 0 00-.51-.725 3.26 3.26 0 00-.64-.478 2.778 2.778 0 00-.71-.258 3.725 3.725 0 00-.73-.08 3.017 3.017 0 00-1.39.319 3.184 3.184 0 00-1 .835 3.68 3.68 0 00-.62 1.153 4.081 4.081 0 00.04 2.694c.162.423.395.816.69 1.162.277.331.617.605 1 .805a2.873 2.873 0 002.05.209c.265-.064.52-.16.76-.288a3.61 3.61 0 00.67-.507c.21-.212.383-.457.51-.726l.72.368a2.708 2.708 0 01-.59.865c-.254.245-.54.456-.85.626a4.286 4.286 0 01-1 .398 4.122 4.122 0 01-1 .129 3.538 3.538 0 01-1.62-.388 4.473 4.473 0 01-2.14-2.455 4.666 4.666 0 01-.3-1.64v-.01zm-5.85-4.264h.85v8.677h-.85V35.63zm-4.69.745h-3.12v7.952h-.86v-7.952h-3.12v-.765h7.1v.765zm-11.88.865a2.63 2.63 0 00-1-.676 3.66 3.66 0 00-1.4-.248 2.651 2.651 0 00-1.69.427 1.444 1.444 0 00-.54 1.183c-.008.225.044.448.15.646.107.18.258.331.44.437.242.132.496.239.76.318.31.09.67.18 1.09.269.426.08.847.186 1.26.318.356.097.694.251 1 .457.253.173.459.405.6.676.153.309.225.65.21.994a2.21 2.21 0 01-.23.994c-.154.296-.381.55-.66.736-.3.211-.64.36-1 .437-.413.093-.836.14-1.26.139a5.16 5.16 0 01-3.51-1.262l.42-.696c.369.367.807.658 1.29.855a4.627 4.627 0 001.81.348 3.014 3.014 0 001.64-.378 1.234 1.234 0 00.59-1.133c.01-.236-.045-.47-.16-.676a1.438 1.438 0 00-.5-.477 3.415 3.415 0 00-.83-.348c-.34-.1-.72-.199-1.16-.298a10.147 10.147 0 01-1.2-.328 2.943 2.943 0 01-.87-.428 1.735 1.735 0 01-.53-.616 1.985 1.985 0 01-.18-.895c-.005-.367.073-.73.23-1.063.144-.311.364-.581.64-.785a2.897 2.897 0 011-.478 4.702 4.702 0 011.25-.139 4.169 4.169 0 012.78 1.004l-.41.686h-.03zm-14.23 7.127a3.707 3.707 0 01-1.67-.378 4.117 4.117 0 01-1.3-.994 4.624 4.624 0 01-.84-1.421 4.551 4.551 0 01-.29-1.62 4.48 4.48 0 01.31-1.67c.203-.519.498-.997.87-1.412.366-.41.807-.748 1.3-.994a3.76 3.76 0 011.63-.358 3.618 3.618 0 011.67.388c.49.246.928.584 1.29.994.358.418.639.896.83 1.411a4.47 4.47 0 010 3.27 4.338 4.338 0 01-.91 1.422c-.363.413-.805.75-1.3.994-.506.24-1.06.362-1.62.358l.03.01zm-3.24-4.404a3.95 3.95 0 00.23 1.362c.151.425.378.819.67 1.163a3.1 3.1 0 001 .805c.41.204.862.306 1.32.299.467.008.928-.102 1.34-.319a3.297 3.297 0 001-.825c.282-.348.502-.74.65-1.163.15-.424.228-.871.23-1.322a3.938 3.938 0 00-.24-1.371 3.694 3.694 0 00-.68-1.153 3.1 3.1 0 00-1-.805 2.844 2.844 0 00-1.3-.299 2.905 2.905 0 00-1.35.309 3.182 3.182 0 00-1 .835 3.892 3.892 0 00-.87 2.484zm-12.33-2.763v7.107h-.85V35.61h.66l5.79 7.236V35.63h.86v8.677h-.74l-5.71-7.107h-.01zm-6.76 5.805a3.728 3.728 0 01-2.78 1.362 3.61 3.61 0 01-1.65-.368 4.248 4.248 0 01-1.29-.994 4.798 4.798 0 01-.86-1.421 4.49 4.49 0 01-.31-1.62c-.002-.567.1-1.13.3-1.66.18-.52.455-1.001.81-1.422.358-.41.793-.748 1.28-.994a3.71 3.71 0 011.62-.358 4.7 4.7 0 011.17.14c.328.088.64.222.93.397.27.16.513.361.72.596.208.23.383.488.52.766l-.67.437a2.752 2.752 0 00-1.12-1.183 3.126 3.126 0 00-1.56-.377 2.825 2.825 0 00-1.31.298 3.3 3.3 0 00-1 .815 3.75 3.75 0 00-.58 1.183c-.151.438-.23.898-.23 1.361.016.94.371 1.843 1 2.545.28.326.619.596 1 .795a3.095 3.095 0 002.73-.06 4.314 4.314 0 001.31-1.093v-1.46h-1.97v-.667h2.68v4.274h-.74v-1.292zm-19 1.263l3.66-8.698h.7l3.66 8.697h-.9l-1.13-2.723h-3.93l-1.12 2.724h-.94zm4-7.694l-1.78 4.344h3.54l-1.75-4.304-.01-.04zm-9.5-.994h.85v8.678h-.85v-8.678zm-12.2 8.678v-8.648h3a4.595 4.595 0 011.84.348 3.8 3.8 0 011.31.924c.35.403.612.873.77 1.382.174.543.262 1.11.26 1.68a5.112 5.112 0 01-.3 1.799c-.18.51-.465.978-.84 1.371a3.65 3.65 0 01-1.31.875 4.635 4.635 0 01-1.74.318l-2.99-.05zm6.29-4.364a4.339 4.339 0 00-.23-1.431 3.156 3.156 0 00-.64-1.134 3 3 0 00-1-.745 3.55 3.55 0 00-1.42-.258h-2.08v7.166h2.11a3.65 3.65 0 001.44-.268 2.998 2.998 0 001-.766c.287-.33.502-.716.63-1.133.148-.463.222-.945.22-1.431h-.03zm97.8-10.01a8.916 8.916 0 01-4-.904 9.88 9.88 0 01-3.13-2.385 10.922 10.922 0 01-2-3.41 11.298 11.298 0 01-.71-3.926c-.002-1.361.256-2.71.76-3.976a10.92 10.92 0 012.09-3.4 10.188 10.188 0 013.15-2.345 8.936 8.936 0 013.91-.865 8.805 8.805 0 014 .925 10.228 10.228 0 013.11 2.435 11.329 11.329 0 012 3.41 11.11 11.11 0 01.71 3.876 10.745 10.745 0 01-.76 3.976 10.905 10.905 0 01-2.08 3.38 9.926 9.926 0 01-3.1 2.414 8.804 8.804 0 01-3.91.875l-.04-.08zm-7.77-10.575a9.887 9.887 0 00.56 3.29 9.023 9.023 0 001.6 2.803 7.926 7.926 0 002.47 1.988 7.254 7.254 0 006.41 0 7.929 7.929 0 002.46-1.988 8.917 8.917 0 001.56-2.803 9.578 9.578 0 000-6.48 8.686 8.686 0 00-1.62-2.784 7.99 7.99 0 00-2.46-1.988 6.904 6.904 0 00-3.14-.716 7.037 7.037 0 00-3.24.746 7.914 7.914 0 00-2.47 1.988 9.137 9.137 0 00-1.53 2.803 9.423 9.423 0 00-.55 3.18l-.05-.04zm-20.21 10.476V8.841h8.87a5.647 5.647 0 012.52.567 6.51 6.51 0 012 1.51 6.61 6.61 0 011.29 2.108c.304.759.46 1.568.46 2.385a7.035 7.035 0 01-.34 2.207 6.858 6.858 0 01-1 1.889 6.06 6.06 0 01-1.49 1.411 5.1 5.1 0 01-1.93.785l5.2 8.081h-2.35l-5-7.733h-6.24v7.733h-1.99zm2-9.562h6.92a3.545 3.545 0 001.68-.397 4.167 4.167 0 001.29-1.074c.356-.463.636-.98.83-1.53a5.435 5.435 0 00.3-1.81 5.148 5.148 0 00-1.21-3.33 4.476 4.476 0 00-1.36-.993 3.818 3.818 0 00-1.65-.378h-6.74v9.552l-.06-.04zm-5.19-9.552h-7.51v19.114h-2.08V10.67h-7.51V8.841h17.1v1.83zm-22.43-1.809h2.05v20.873h-2.05V8.861zm-20.24 0l7.54 18.379 7.48-18.379h2.19l-8.78 20.923h-1.76l-8.84-20.943 2.17.02zm-20.75 3.807v17.116h-2V8.841h1.6l14 17.434V8.861h2v20.873h-1.83l-13.77-17.066zm-9.44-3.807h2v20.873h-2V8.861z" fill="#1C355E"/><path d="M20.21 33.64a.659.659 0 01-.396-.6.654.654 0 01.396-.602l-1 .427a.678.678 0 00-.4.606v3.569a.672.672 0 00.4.606l13.64 5.795a.678.678 0 01.4.606.652.652 0 01-.4.607l1-.428a.678.678 0 00.4-.606v-3.598a.653.653 0 00-.4-.606L20.21 33.64zm12.62-2.186a.678.678 0 00.4-.607.653.653 0 00-.4-.606l-3.73-1.59-8.89 3.787a.659.659 0 00-.396.601.654.654 0 00.396.602l3.73 1.59 8.89-3.777zM20.21 20.52a.68.68 0 01-.4-.606.652.652 0 01.4-.607l-1 .438a.659.659 0 00-.4.606v3.509a.652.652 0 00.4.606l13.64 5.805a.659.659 0 01.4.606.674.674 0 01-.4.607l1-.438a.66.66 0 00.4-.606v-3.55a.674.674 0 00-.4-.606L20.21 20.49v.03zm6.31-3.896l-6.31 2.683a.659.659 0 00-.4.607.672.672 0 00.4.606l3.73 1.58 2.58-1.093v-4.413.03zm7.33-3.121a.66.66 0 00.4-.607V8.483a.652.652 0 01-.4.606l-6.23 2.654v4.423l6.23-2.654v-.01zM53 26.572a26.227 26.227 0 00-4.452-14.642 26.465 26.465 0 00-11.886-9.714A26.65 26.65 0 0021.349.706 26.55 26.55 0 007.772 7.907a26.292 26.292 0 00-7.26 13.487 26.193 26.193 0 001.502 15.223 26.375 26.375 0 009.76 11.826 26.614 26.614 0 0014.726 4.44 26.572 26.572 0 0018.73-7.7A26.25 26.25 0 0053 26.572z" fill="#fff"/><path d="M53 26.573a26.227 26.227 0 00-4.452-14.642 26.465 26.465 0 00-11.886-9.714A26.65 26.65 0 0021.349.706 26.55 26.55 0 007.772 7.907a26.292 26.292 0 00-7.26 13.487 26.193 26.193 0 001.502 15.223 26.375 26.375 0 009.76 11.826 26.614 26.614 0 0014.726 4.44 26.572 26.572 0 0018.73-7.7A26.25 26.25 0 0053 26.572z" fill="#193661"/><path d="M33.847 13.474a.66.66 0 00.4-.606V8.484a.653.653 0 01-.4.607l-6.23 2.654v4.423l6.23-2.654v-.04z" fill="#00A9C3"/><path d="M20.209 20.49a.68.68 0 01-.4-.606.652.652 0 01.4-.607l-1 .438a.66.66 0 00-.4.606v3.509a.652.652 0 00.4.606l13.64 5.805a.66.66 0 01.4.606.672.672 0 01-.4.606l1-.437a.66.66 0 00.4-.606v-3.52a.672.672 0 00-.4-.606l-13.64-5.795zm0 13.15a.659.659 0 01-.397-.601.654.654 0 01.397-.601l-1 .427a.68.68 0 00-.4.606v3.569a.672.672 0 00.4.606l13.64 5.795a.68.68 0 01.4.606.652.652 0 01-.4.607l1-.428a.678.678 0 00.4-.606v-3.598a.653.653 0 00-.4-.607l-13.64-5.775z" fill="#fff"/><path d="M26.519 16.594l-6.31 2.683a.66.66 0 00-.4.607.672.672 0 00.4.606l3.73 1.58 2.58-1.093v-4.383zm6.31 14.91a.68.68 0 00.4-.607.652.652 0 00-.4-.606l-3.73-1.59-8.89 3.786a.659.659 0 00-.397.602.654.654 0 00.397.601l3.73 1.59 8.89-3.777z" fill="#C9CACB"/></svg>